<svg width="419" height="99" viewBox="0 0 419 99" fill="none" xmlns="http://www.w3.org/2000/svg">
<path d="M418.139 98.0827H0V7.24943e-06H418.139V98.0827Z" fill="#2C292A"/>
<path d="M77.1177 33.5976H109.756L104.452 46.223H77.1177V33.5976ZM68.3377 61.7243C69.7044 60.9816 71.271 60.559 72.9337 60.559C74.4337 60.559 75.8497 60.9123 77.1177 61.5256V55.003H104.452L108.078 63.6323C109.839 61.7456 112.34 60.559 115.12 60.559C115.536 60.559 115.943 60.5936 116.346 60.6456L112.131 50.6123L122.968 24.8176H68.3377V61.7243Z" fill="white"/>
<path d="M72.9335 63.753C69.3682 63.753 66.4788 66.6423 66.4788 70.2077C66.4788 73.7717 69.3682 76.6623 72.9335 76.6623C76.4988 76.6623 79.3882 73.7717 79.3882 70.2077C79.3882 66.6423 76.4988 63.753 72.9335 63.753Z" fill="white"/>
<path d="M115.12 63.753C111.556 63.753 108.665 66.6423 108.665 70.2077C108.665 73.7717 111.556 76.6623 115.12 76.6623C118.685 76.6623 121.574 73.7717 121.574 70.2077C121.574 66.6423 118.685 63.753 115.12 63.753Z" fill="white"/>
<path d="M358.233 47.8253H322.696L325.23 34.5773H314.417C313.12 34.5773 312.126 35.26 311.93 36.284L306.077 66.8813H316.89C318.188 66.8813 319.181 66.1987 319.377 65.1747L321.797 52.524H357.328L358.233 47.8253Z" fill="white"/>
<path d="M301.553 35.6246H290.239H285.909H255.628L254.775 40.1166H280.376C280.704 40.1166 280.824 40.4553 280.627 40.642L249.903 66.8806H267.133L277.735 57.718L286.216 65.8766C286.952 66.5846 288.003 67.01 289.019 67.0113L299.929 67.0166L284.045 52.2633L301.969 36.7326C302.385 36.3393 302.245 35.6246 301.553 35.6246Z" fill="white"/>
<path d="M234.249 35.7857C234.782 33.5897 237.204 31.803 239.646 31.803C242.09 31.803 243.644 33.5897 243.11 35.7857C242.577 37.9817 240.156 39.7684 237.713 39.7684C235.269 39.7684 233.716 37.9817 234.249 35.7857ZM247.004 35.7857C248.005 31.6604 245.086 28.303 240.497 28.303C235.908 28.303 231.358 31.6604 230.356 35.7857C229.617 38.831 231.018 41.4537 233.648 42.6204L214.025 48.2764L216.646 34.5777H205.832C204.534 34.5777 203.541 35.2604 203.345 36.2844L198.914 59.447C198.205 63.6097 200.532 66.707 206.706 66.883H209.649H210.466H243.925L244.646 63.1124H215.724C212.29 62.9777 211.46 61.395 211.877 59.5417L211.869 59.5457L213.077 53.2377L248.506 43.0204L249.449 38.0657L245.173 39.2977C246.049 38.2497 246.696 37.055 247.004 35.7857Z" fill="white"/>
<path d="M148.108 34.5777C146.811 34.5777 145.817 35.2591 145.621 36.2844L141.743 56.5031L155.475 52.5311L158.921 34.5777H148.108Z" fill="white"/>
<path d="M183.948 34.5778C182.651 34.5778 181.657 35.2591 181.461 36.2844L177.901 54.8671C177.469 56.7644 176.605 58.3364 174.261 59.5271C173.549 59.8818 172.472 60.2458 171.516 60.5231L159.032 64.1191L158.1 69.0764L180.521 62.6191C182.3 62.1018 184.415 61.4498 185.832 60.6831C188.879 58.9778 190.557 56.4684 191.228 53.0458L194.761 34.5778H183.948Z" fill="white"/>
</svg>
